<?xml version="1.0" encoding="UTF-8" standalone="no"?>
<svg
   xmlns:dc="http://purl.org/dc/elements/1.1/"
   xmlns:cc="http://creativecommons.org/ns#"
   xmlns:rdf="http://www.w3.org/1999/02/22-rdf-syntax-ns#"
   xmlns:svg="http://www.w3.org/2000/svg"
   xmlns="http://www.w3.org/2000/svg"
   xmlns:sodipodi="http://sodipodi.sourceforge.net/DTD/sodipodi-0.dtd"
   xmlns:inkscape="http://www.inkscape.org/namespaces/inkscape"
   id="Icon_v6"
   data-name="Icon v6"
   width="256"
   height="256"
   viewBox="0 0 256 256"
   version="1.1"
   sodipodi:docname="icon.svg">
  <metadata
     id="metadata899">
    <rdf:RDF>
      <cc:Work
         rdf:about="">
        <dc:format>image/svg+xml</dc:format>
        <dc:type
           rdf:resource="http://purl.org/dc/dcmitype/StillImage" />
      </cc:Work>
    </rdf:RDF>
  </metadata>
  <sodipodi:namedview
     pagecolor="#ffffff"
     bordercolor="#666666"
     borderopacity="1"
     objecttolerance="10"
     gridtolerance="10"
     guidetolerance="10"
     inkscape:pageopacity="0"
     inkscape:pageshadow="2"
     inkscape:window-width="640"
     inkscape:window-height="480"
     id="namedview897"
     showgrid="false" />
  <defs
     id="defs888">
    <style
       id="style886">
      .cls-1 {
        fill: #0b4c00;
      }

      .cls-1, .cls-2 {
        fill-rule: evenodd;
      }

      .cls-2 {
        fill: #18a800;
      }
    </style>
  </defs>
  <path
     id="Little_3"
     data-name="Little 3"
     class="cls-1"
     d="M -337.34,150.872 A 92.366,92.366 0 0 0 -333,131 a 104.76,104.76 0 0 0 5.077,20.436 c 3.591,9.956 7.675,15.908 8.048,25.224 0.445,11.137 -4.454,21.948 -13.185,32.236 -8.37,-9.575 -13.211,-19.758 -13.153,-30.414 0.055,-10.166 5.14,-16.62 8.873,-27.61 z" />
  <path
     id="Little_2"
     data-name="Little 2"
     class="cls-1"
     d="m -318,117 a 104.971,104.971 0 0 1 -15,14 92.228,92.228 0 0 1 20,-6 c 10.256,-1.821 17.6,-0.849 26,-5 9.994,-4.937 17.143,-14.411 22,-27 -12.412,-2.769 -23.67,-2.149 -33,3 -8.861,4.89 -12.219,12.133 -20,21 z" />
  <path
     id="Little_1"
     data-name="Little 1"
     class="cls-1"
     d="m -348,117 a 104.971,104.971 0 0 0 15,14 92.228,92.228 0 0 0 -20,-6 c -10.256,-1.821 -17.6,-0.849 -26,-5 -9.994,-4.937 -17.143,-14.411 -22,-27 12.412,-2.769 23.67,-2.149 33,3 8.861,4.89 12.219,12.133 20,21 z" />
  <path
     id="_3"
     data-name="3"
     class="cls-2"
     d="m -246.33,223.512 c 8.261,-10.509 10.737,-24.229 7.868,-37.123 12.295,-3.762 22.808,-12.238 28.061,-24.115 7,-15.821 4.093,-36.5 -9.739,-48.612 -5.728,-5.016 -17.7,-12.32 -31.649,-9.294 -12.521,2.718 -22.378,15.56 -27.256,18.791 -13.145,8.708 -31.163,11.993 -53.431,8.072 14.037,17.722 20.411,34.513 19.02,50.579 -0.25,2.886 -6.857,20.976 -3.106,32.96 4.23,13.514 16.2,20.459 23.552,23.093 17.01,6.092 36.141,-0.944 46.68,-14.351 z" />
  <path
     id="_2"
     data-name="2"
     class="cls-2"
     d="m -418.858,223.512 c -8.261,-10.512 -10.736,-24.229 -7.867,-37.123 -12.3,-3.762 -22.808,-12.238 -28.062,-24.115 -7,-15.821 -4.093,-36.5 9.739,-48.612 5.728,-5.016 17.7,-12.32 31.649,-9.294 12.521,2.718 22.378,15.56 27.256,18.791 13.145,8.708 31.163,11.993 53.431,8.072 -14.037,17.722 -20.412,34.513 -19.021,50.579 0.25,2.886 6.857,20.976 3.106,32.96 -4.23,13.514 -16.2,20.459 -23.552,23.093 -17.011,6.092 -36.14,-0.944 -46.679,-14.351 z" />
  <path
     id="_1"
     data-name="1"
     class="cls-2"
     d="m -369,10 c 13.245,-1.807 26.331,3 36,12 9.467,-8.7 22.1,-13.479 35,-12 17.187,1.971 33.553,14.94 37,33 1.427,7.479 1.669,21.5 -8,32 -8.68,9.425 -24.744,11.428 -30,14 -14.162,6.931 -26.114,20.809 -34,42 -8.182,-21.075 -19.439,-35.07 -34,-42 -2.615,-1.245 -21.562,-4.7 -30,-14 -9.516,-10.487 -9.45,-24.324 -8,-32 3.354,-17.756 19.1,-30.694 36,-33 z" />
</svg>
