<svg id="Icon_v6" data-name="Icon v6" xmlns="http://www.w3.org/2000/svg" width="256" height="256" viewBox="0 0 256 256">
  <defs>
    <style>
      .cls-1 {
        fill: #0b4c00;
      }

      .cls-1, .cls-2 {
        fill-rule: evenodd;
      }

      .cls-2 {
        fill: #18a800;
      }
    </style>
  </defs>
  <path id="Little_3" data-name="Little 3" class="cls-1" d="M123.66,152.872A92.366,92.366,0,0,0,128,133a104.76,104.76,0,0,0,5.077,20.436c3.591,9.956,7.675,15.908,8.048,25.224,0.445,11.137-4.454,21.948-13.185,32.236-8.37-9.575-13.211-19.758-13.153-30.414C114.842,170.316,119.927,163.862,123.66,152.872Z"/>
  <path id="Little_2" data-name="Little 2" class="cls-1" d="M143,119a104.971,104.971,0,0,1-15,14,92.228,92.228,0,0,1,20-6c10.256-1.821,17.6-.849,26-5,9.994-4.937,17.143-14.411,22-27-12.412-2.769-23.67-2.149-33,3C154.139,102.89,150.781,110.133,143,119Z"/>
  <path id="Little_1" data-name="Little 1" class="cls-1" d="M113,119a104.971,104.971,0,0,0,15,14,92.228,92.228,0,0,0-20-6c-10.256-1.821-17.6-.849-26-5-9.994-4.937-17.143-14.411-22-27,12.412-2.769,23.67-2.149,33,3C101.861,102.89,105.219,110.133,113,119Z"/>
  <path id="_3" data-name="3" class="cls-2" d="M214.67,225.512c8.261-10.509,10.737-24.229,7.868-37.123,12.295-3.762,22.808-12.238,28.061-24.115,7-15.821,4.093-36.5-9.739-48.612-5.728-5.016-17.7-12.32-31.649-9.294-12.521,2.718-22.378,15.56-27.256,18.791-13.145,8.708-31.163,11.993-53.431,8.072,14.037,17.722,20.411,34.513,19.02,50.579-0.25,2.886-6.857,20.976-3.106,32.96,4.23,13.514,16.2,20.459,23.552,23.093C185,245.955,204.131,238.919,214.67,225.512Z"/>
  <path id="_2" data-name="2" class="cls-2" d="M42.142,225.512C33.881,215,31.406,201.283,34.275,188.389c-12.3-3.762-22.808-12.238-28.062-24.115-7-15.821-4.093-36.5,9.739-48.612,5.728-5.016,17.7-12.32,31.649-9.294,12.521,2.718,22.378,15.56,27.256,18.791,13.145,8.708,31.163,11.993,53.431,8.072-14.037,17.722-20.412,34.513-19.021,50.579,0.25,2.886,6.857,20.976,3.106,32.96-4.23,13.514-16.2,20.459-23.552,23.093C71.81,245.955,52.681,238.919,42.142,225.512Z"/>
  <path id="_1" data-name="1" class="cls-2" d="M92,12c13.245-1.807,26.331,3,36,12,9.467-8.7,22.1-13.479,35-12,17.187,1.971,33.553,14.94,37,33,1.427,7.479,1.669,21.5-8,32-8.68,9.425-24.744,11.428-30,14-14.162,6.931-26.114,20.809-34,42-8.182-21.075-19.439-35.07-34-42-2.615-1.245-21.562-4.7-30-14-9.516-10.487-9.45-24.324-8-32C59.354,27.244,75.1,14.306,92,12Z"/>
</svg>
